<svg width="320" height="115" viewBox="0 0 320 115" fill="none" xmlns="http://www.w3.org/2000/svg">
<path fill-rule="evenodd" clip-rule="evenodd" d="M320 25.9157L312.267 43.1929C304.8 60.47 289.6 95.0244 274.4 101.503C258.933 107.982 243.733 86.3858 228.533 73.4279C213.333 60.47 198.133 56.1508 182.933 64.7893C167.733 73.4279 152.267 95.0244 137.067 105.823C121.867 116.621 106.667 116.621 91.4667 112.302C76.2667 107.982 61.0667 99.3436 45.6 88.5454C30.4 77.7472 15.2 64.7893 7.73334 58.3104L0 51.8315V0H7.73334C15.2 0 30.4 0 45.6 0C61.0667 0 76.2667 0 91.4667 0C106.667 0 121.867 0 137.067 0C152.267 0 167.733 0 182.933 0C198.133 0 213.333 0 228.533 0C243.733 0 258.933 0 274.4 0C289.6 0 304.8 0 312.267 0H320V25.9157Z" fill="black"/>
</svg>
