<svg width="320" height="64" viewBox="0 0 320 64" fill="none" xmlns="http://www.w3.org/2000/svg">
<path d="M0 49.7778L4.11111 46.2222C8.2 42.6667 16.4444 35.5556 24.6667 30.8222C32.8222 26 41.1111 23.7778 49.3333 27.2667C57.4444 30.8889 65.5556 40.2222 73.7778 37.9333C82.0444 35.5556 90.2222 21.3333 98.4444 18.9556C106.667 16.6667 114.889 26 123.111 32C131.289 38 139.556 40.2222 147.778 37.9333C155.889 35.5556 164 28.4444 172.222 26.0667C180.511 23.7778 188.667 26 196.889 27.2667C205.133 28.4444 213.333 28.4444 221.556 26.0667C229.733 23.7778 238 18.8889 246.222 15.4C254.356 11.7778 262.667 9.55556 270.667 9.48889C278.978 9.55556 287.111 11.7778 295.333 21.3333C303.6 30.8889 311.778 47.3333 316 55.7111L320 64V0H315.889C311.8 0 303.556 0 295.333 0C287.178 0 278.889 0 270.667 0C262.556 0 254.444 0 246.222 0C237.956 0 229.778 0 221.556 0C213.333 0 205.111 0 196.889 0C188.711 0 180.444 0 172.222 0C164.111 0 156 0 147.778 0C139.489 0 131.333 0 123.111 0C114.867 0 106.667 0 98.4444 0C90.2667 0 82 0 73.7778 0C65.6444 0 57.3333 0 49.3333 0C41.0222 0 32.8889 0 24.6667 0C16.4 0 8.22222 0 4 0H0V49.7778Z" fill="black"/>
</svg>
